<svg width="20" height="20" viewBox="0 0 20 20" fill="none" xmlns="http://www.w3.org/2000/svg">
<path d="M17.7084 10C17.7084 15.9245 11.3811 10.665 10 13.4314C9.14354 15.1471 12.4215 17.2917 10 17.2917C5.74283 17.2917 2.29169 14.0271 2.29169 10C2.29169 5.97296 5.74283 2.70837 10 2.70837C14.2572 2.70837 17.7084 5.97296 17.7084 10Z" stroke="#111014" stroke-opacity="0.56" stroke-width="1.5"/>
<path d="M9.58335 6.45837C9.58335 7.03367 9.11698 7.50004 8.54169 7.50004C7.96639 7.50004 7.50002 7.03367 7.50002 6.45837C7.50002 5.88308 7.96639 5.41671 8.54169 5.41671C9.11698 5.41671 9.58335 5.88308 9.58335 6.45837Z" stroke="#111014" stroke-opacity="0.56" stroke-width="1.5"/>
<path d="M7.08335 10C7.08335 10.5753 6.61698 11.0417 6.04169 11.0417C5.46639 11.0417 5.00002 10.5753 5.00002 10C5.00002 9.42474 5.46639 8.95837 6.04169 8.95837C6.61698 8.95837 7.08335 9.42474 7.08335 10Z" stroke="#111014" stroke-opacity="0.56" stroke-width="1.5"/>
<path d="M13.75 7.70837C13.75 8.28367 13.2837 8.75004 12.7084 8.75004C12.1331 8.75004 11.6667 8.28367 11.6667 7.70837C11.6667 7.13308 12.1331 6.66671 12.7084 6.66671C13.2837 6.66671 13.75 7.13308 13.75 7.70837Z" stroke="#111014" stroke-opacity="0.56" stroke-width="1.5"/>
</svg>
